<?xml version="1.0" encoding="UTF-8"?>
<svg width="24px" height="24px" viewBox="0 0 24 24" version="1.1" xmlns="http://www.w3.org/2000/svg" xmlns:xlink="http://www.w3.org/1999/xlink">
    <!-- Generator: Sketch 50 (54983) - http://www.bohemiancoding.com/sketch -->
    <title>24/ic_webpreview</title>
    <desc>Created with Sketch.</desc>
    <defs></defs>
    <g id="24/ic_webpreview" stroke="none" stroke-width="1" fill="none" fill-rule="evenodd">
        <polygon id="Container" points="0 0 24 0 24 24 0 24"></polygon>
        <path d="M20,4 C21.1,4 22,4.9 22,6 L22,18 C22,19.1 21.1,20 20,20 L17,20 L15,20 L4,20 C2.9,20 2,19.1 2,18 L2,6 C2,4.9 2.9,4 4,4 L20,4 Z M20,18 L20,8 L4,8 L4,18 L15,18 L17,18 L20,18 Z M12,9 L19,13 L12,17 L5,13 L12,9 Z M12,14.9 C13,14.9 13.9,14.1 13.9,13 C13.9,11.9 13.1,11.1 12,11.1 C10.9,11.1 10.1,11.9 10.1,13 C10.1,14.1 11,14.9 12,14.9 Z" id="Combined-Shape" fill="#000000" fill-rule="nonzero"></path>
    </g>
</svg>